<?xml version="1.0" encoding="UTF-8"?>
<svg width="32px" height="32px" viewBox="0 0 32 32" version="1.1" xmlns="http://www.w3.org/2000/svg" xmlns:xlink="http://www.w3.org/1999/xlink" xmlns:sketch="http://www.bohemiancoding.com/sketch/ns">
    <!-- Generator: Sketch 3.5.1 (25234) - http://www.bohemiancoding.com/sketch -->
    <title>coin</title>
    <desc>Created with Sketch.</desc>
    <defs></defs>
    <g id="Page-1" stroke="none" stroke-width="1" fill="none" fill-rule="evenodd" sketch:type="MSPage">
        <g id="coin" sketch:type="MSLayerGroup">
            <g id="Page-1" sketch:type="MSShapeGroup">
                <g id="Group">
                    <path d="M16,32 C24.836556,32 32,24.836556 32,16 C32,7.163444 24.836556,0 16,0 C7.163444,0 0,7.163444 0,16 C0,24.836556 7.163444,32 16,32 L16,32 Z" id="Oval" fill="#222222"></path>
                    <path d="M10.9447991,17.4101562 L10.958471,17.4511719 C10.9767003,18.5175835 10.7044048,19.3162408 10.1415765,19.847168 C9.57874813,20.3780951 8.77553351,20.6435547 7.7319085,20.6435547 C6.6609396,20.6435547 5.8110132,20.3279654 5.18210381,19.6967773 C4.55319442,19.0655893 4.23874443,18.1689511 4.23874443,17.0068359 L4.23874443,14.0537109 C4.23874443,12.8961531 4.54294061,11.9983756 5.15134209,11.3603516 C5.75974357,10.7223275 6.58118718,10.4033203 7.61569756,10.4033203 C8.70489571,10.4033203 9.54115037,10.6676406 10.1244866,11.1962891 C10.7078229,11.7249375 10.9903721,12.5247342 10.9721429,13.5957031 L10.958471,13.6367188 L9.08542412,13.6367188 C9.08542412,12.9986947 8.97263228,12.5520846 8.74704522,12.296875 C8.52145815,12.0416654 8.14434604,11.9140625 7.61569756,11.9140625 C7.13262223,11.9140625 6.77032116,12.0883772 6.5287835,12.4370117 C6.28724583,12.7856463 6.16647881,13.3199834 6.16647881,14.0400391 L6.16647881,17.0068359 C6.16647881,17.7314489 6.29636032,18.2680647 6.55612725,18.6166992 C6.81589417,18.9653338 7.20781734,19.1396484 7.7319085,19.1396484 C8.21042651,19.1396484 8.55449859,19.0131849 8.76413506,18.7602539 C8.97377152,18.507323 9.07858818,18.0572949 9.07858818,17.4101562 L10.9447991,17.4101562 Z M11.8061272,16.7333984 C11.8061272,15.6214137 12.0715868,14.715661 12.602514,14.0161133 C13.1334411,13.3165655 13.8796901,12.9667969 14.8412835,12.9667969 C15.7983195,12.9667969 16.5457079,13.3165655 17.083471,14.0161133 C17.6212341,14.715661 17.8901116,15.6214137 17.8901116,16.7333984 L17.8901116,16.890625 C17.8901116,18.0026097 17.6223734,18.9060838 17.086889,19.6010742 C16.5514045,20.2960647 15.8074341,20.6435547 14.8549554,20.6435547 C13.8888047,20.6435547 13.1391377,20.297204 12.6059319,19.6044922 C12.0727261,18.9117804 11.8061272,18.007167 11.8061272,16.890625 L11.8061272,16.7333984 Z M13.7270257,16.890625 C13.7270257,17.5787795 13.812474,18.125649 13.9833733,18.53125 C14.1542726,18.936851 14.4447971,19.1396484 14.8549554,19.1396484 C15.2468844,19.1396484 15.5294337,18.936851 15.7026116,18.53125 C15.8757896,18.125649 15.9623772,17.5787795 15.9623772,16.890625 L15.9623772,16.7333984 C15.9623772,16.0543586 15.8757896,15.5086284 15.7026116,15.0961914 C15.5294337,14.6837544 15.2423272,14.4775391 14.8412835,14.4775391 C14.4402398,14.4775391 14.1542726,14.6848938 13.9833733,15.0996094 C13.812474,15.514325 13.7270257,16.0589159 13.7270257,16.7333984 L13.7270257,16.890625 Z M20.9526116,20.5 L19.0248772,20.5 L19.0248772,13.1035156 L20.9526116,13.1035156 L20.9526116,20.5 Z M20.9526116,11.3056641 L19.0248772,11.3056641 L19.0248772,9.8359375 L20.9526116,9.8359375 L20.9526116,11.3056641 Z M24.0971429,13.1035156 L24.1791741,14.1357422 C24.3888106,13.7665997 24.6451557,13.4794932 24.9482171,13.2744141 C25.2512785,13.0693349 25.589654,12.9667969 25.9633538,12.9667969 C26.5922632,12.9667969 27.0855851,13.2117489 27.4433343,13.7016602 C27.8010835,14.1915715 27.9799554,14.9606067 27.9799554,16.0087891 L27.9799554,20.5 L26.052221,20.5 L26.052221,16.0087891 C26.052221,15.4527967 25.9850016,15.0597342 25.8505608,14.8295898 C25.7161201,14.5994455 25.5121833,14.484375 25.2387444,14.484375 C25.0245507,14.484375 24.832007,14.5345047 24.6611077,14.6347656 C24.4902084,14.7350265 24.3455159,14.8763012 24.2270257,15.0585938 L24.2270257,20.5 L22.2992913,20.5 L22.2992913,13.1035156 L24.0971429,13.1035156 Z" id="Coin" fill="#FFFFFF"></path>
                </g>
            </g>
        </g>
    </g>
</svg>